<!DOCTYPE svg PUBLIC "-//W3C//DTD SVG 20010904//EN" "http://www.w3.org/TR/2001/REC-SVG-20010904/DTD/svg10.dtd">
<svg version="1.0" xmlns="http://www.w3.org/2000/svg" width="42px" height="40px" viewBox="0 0 420 400" preserveAspectRatio="xMidYMid meet">
<g id="layer101" fill="#000000" stroke="none">
<path d="M45 355 l-45 -44 0 -110 0 -110 45 -46 46 -45 118 0 118 0 47 44 46 45 0 111 0 111 -45 44 -44 45 -121 0 -121 0 -44 -45z m126 -34 c-12 -16 -21 -32 -21 -35 0 -3 -14 -21 -30 -38 -23 -24 -30 -40 -28 -62 4 -46 43 -48 80 -6 28 33 58 35 58 5 0 -8 5 -15 10 -15 6 0 10 -6 10 -13 0 -7 8 -22 18 -33 29 -31 34 -54 12 -54 -10 0 -22 -5 -25 -10 -11 -17 -67 -11 -115 12 -35 17 -51 33 -68 68 -12 25 -22 52 -22 60 0 22 44 110 55 110 6 0 21 9 35 20 39 30 55 25 31 -9z m117 8 c24 -13 48 -37 61 -61 20 -38 28 -98 15 -111 -6 -6 -34 16 -34 28 0 3 -18 33 -40 65 -22 32 -40 64 -40 69 0 6 -4 11 -10 11 -5 0 -10 5 -10 10 0 15 14 12 58 -11z"/>
</g>
<g id="layer102" fill="#ffffff" stroke="none">
<path d="M102 392 c-13 -4 -22 -9 -20 -12 4 -7 -46 -57 -53 -53 -4 1 -13 -5 -20 -14 -12 -14 -12 -16 1 -8 13 8 13 6 2 -8 -10 -11 -13 -43 -11 -109 2 -76 6 -97 22 -115 11 -12 24 -20 30 -16 6 3 7 1 3 -5 -4 -8 3 -16 19 -22 14 -5 24 -14 21 -18 -3 -5 45 -10 105 -11 106 -2 113 -1 150 25 21 15 39 29 39 31 0 2 -4 1 -10 -2 -6 -3 -7 1 -4 9 3 9 11 14 17 13 7 -1 11 6 11 15 -1 10 2 15 7 12 5 -3 9 39 9 95 l0 101 -47 47 c-25 27 -43 41 -39 33 5 -9 2 -8 -7 3 -12 14 -30 17 -108 16 -52 -1 -104 -4 -117 -7z m171 -45 c9 -2 24 -12 33 -23 8 -10 13 -13 9 -6 -9 19 0 14 21 -10 13 -14 14 -19 4 -14 -12 6 -12 5 1 -6 36 -30 46 -107 18 -141 l-18 -22 6 23 c4 16 1 22 -10 22 -9 0 -22 10 -28 23 -12 21 -11 21 6 7 11 -9 8 0 -8 22 -16 20 -34 39 -42 42 -8 3 -12 12 -9 21 4 8 1 15 -6 15 -7 0 -10 7 -6 16 3 8 2 12 -4 9 -6 -3 -10 1 -10 9 0 23 -37 20 -50 -4 -6 -11 -8 -25 -5 -30 3 -6 1 -10 -6 -10 -16 0 -38 -30 -39 -52 0 -11 -5 -15 -14 -12 -19 7 -29 -12 -22 -41 4 -17 11 -23 23 -18 10 4 14 2 10 -4 -10 -16 21 -10 36 7 9 11 8 11 -7 0 -18 -14 -18 -14 -6 7 8 12 19 21 24 20 6 -1 10 3 9 10 -1 6 5 17 15 25 16 12 16 11 2 -6 -14 -18 -13 -19 2 -14 16 7 34 -16 29 -37 -2 -5 1 -7 5 -3 9 9 34 -10 34 -26 0 -6 -5 -4 -11 4 -7 10 -9 11 -7 2 2 -8 8 -14 13 -14 18 0 36 -21 31 -34 -3 -8 2 -18 12 -23 21 -12 16 -18 -23 -25 -24 -5 -26 -4 -10 3 18 8 18 10 2 10 -10 1 -20 -5 -23 -12 -8 -22 -53 -18 -107 11 -28 15 -53 30 -55 35 -2 4 -10 7 -17 7 -13 0 -26 22 -24 43 0 7 4 3 9 -8 7 -15 9 -16 9 -4 1 9 -6 22 -14 29 -17 14 -20 46 -6 55 16 9 40 65 29 65 -6 0 -5 6 2 15 7 9 19 14 26 11 7 -3 18 2 25 11 26 31 54 35 142 20z"/>
</g>


</svg>